<mxfile host="65bd71144e">
    <diagram id="pjMAJO6N3diHDYUZcerG" name="Page-1">
        <mxGraphModel dx="445" dy="1164" grid="1" gridSize="10" guides="1" tooltips="1" connect="1" arrows="1" fold="1" page="0" pageScale="1" pageWidth="827" pageHeight="1169" background="#ffffff" math="0" shadow="0">
            <root>
                <mxCell id="0"/>
                <mxCell id="1" parent="0"/>
                <mxCell id="7" value="Backoffice" style="strokeWidth=1;shadow=0;dashed=0;align=center;html=1;shape=mxgraph.mockup.containers.window;align=left;verticalAlign=top;spacingLeft=8;strokeColor2=#008cff;strokeColor3=#c4c4c4;fontColor=#666666;mainText=;fontSize=17;labelBackgroundColor=none;movable=1;resizable=1;rotatable=1;deletable=1;editable=1;connectable=1;" vertex="1" parent="1">
                    <mxGeometry x="270" y="160" width="650" height="340" as="geometry"/>
                </mxCell>
                <mxCell id="11" value="" style="endArrow=none;html=1;" edge="1" parent="1">
                    <mxGeometry width="50" height="50" relative="1" as="geometry">
                        <mxPoint x="380" y="220" as="sourcePoint"/>
                        <mxPoint x="380" y="500" as="targetPoint"/>
                    </mxGeometry>
                </mxCell>
                <mxCell id="15" value="Compose page" style="rounded=0;whiteSpace=wrap;html=1;strokeColor=#666666;fillColor=#f5f5f5;fontColor=#333333;" vertex="1" parent="1">
                    <mxGeometry x="270" y="190" width="110" height="40" as="geometry"/>
                </mxCell>
                <mxCell id="16" value="Table" style="rounded=1;whiteSpace=wrap;html=1;arcSize=2;" vertex="1" parent="1">
                    <mxGeometry x="390" y="320" width="320" height="170" as="geometry"/>
                </mxCell>
                <mxCell id="23" value="Tabs" style="rounded=1;whiteSpace=wrap;html=1;" vertex="1" parent="1">
                    <mxGeometry x="390" y="260" width="520" height="30" as="geometry"/>
                </mxCell>
                <mxCell id="26" value="Button" style="rounded=1;whiteSpace=wrap;html=1;" vertex="1" parent="1">
                    <mxGeometry x="390" y="210" width="120" height="30" as="geometry"/>
                </mxCell>
                <mxCell id="30" style="edgeStyle=none;html=1;entryX=0;entryY=0.5;entryDx=0;entryDy=0;startArrow=none;startFill=0;" edge="1" parent="1" source="27" target="29">
                    <mxGeometry relative="1" as="geometry"/>
                </mxCell>
                <mxCell id="27" value="Client" style="rounded=1;whiteSpace=wrap;html=1;arcSize=2;fillColor=#ffe6cc;strokeColor=#d79b00;" vertex="1" parent="1">
                    <mxGeometry x="720" y="320" width="190" height="170" as="geometry"/>
                </mxCell>
                <mxCell id="28" value="API gateway" style="rounded=0;whiteSpace=wrap;html=1;strokeWidth=1;horizontal=0;fillColor=#f8cecc;strokeColor=#b85450;" vertex="1" parent="1">
                    <mxGeometry x="950" y="310" width="40" height="180" as="geometry"/>
                </mxCell>
                <mxCell id="29" value="Microservice" style="rounded=0;whiteSpace=wrap;html=1;strokeWidth=1;fillColor=#f8cecc;strokeColor=#b85450;" vertex="1" parent="1">
                    <mxGeometry x="1030" y="380" width="120" height="50" as="geometry"/>
                </mxCell>
                <mxCell id="35" value="OR" style="text;html=1;strokeColor=none;fillColor=none;align=center;verticalAlign=middle;whiteSpace=wrap;rounded=0;strokeWidth=1;" vertex="1" parent="1">
                    <mxGeometry x="560" y="40" width="60" height="30" as="geometry"/>
                </mxCell>
                <mxCell id="38" style="edgeStyle=orthogonalEdgeStyle;html=1;entryX=0.5;entryY=0;entryDx=0;entryDy=0;startArrow=none;startFill=0;rounded=0;dashed=1;fillColor=#e1d5e7;strokeColor=#9673a6;" edge="1" parent="1" source="37" target="26">
                    <mxGeometry relative="1" as="geometry">
                        <Array as="points">
                            <mxPoint x="610" y="130"/>
                            <mxPoint x="450" y="130"/>
                        </Array>
                    </mxGeometry>
                </mxCell>
                <mxCell id="39" style="edgeStyle=orthogonalEdgeStyle;rounded=0;html=1;entryX=0.5;entryY=0;entryDx=0;entryDy=0;startArrow=none;startFill=0;dashed=1;fillColor=#e1d5e7;strokeColor=#9673a6;" edge="1" parent="1" source="37" target="23">
                    <mxGeometry relative="1" as="geometry">
                        <Array as="points">
                            <mxPoint x="610" y="130"/>
                            <mxPoint x="650" y="130"/>
                        </Array>
                    </mxGeometry>
                </mxCell>
                <mxCell id="40" style="edgeStyle=orthogonalEdgeStyle;rounded=0;html=1;startArrow=none;startFill=0;dashed=1;fillColor=#e1d5e7;strokeColor=#9673a6;" edge="1" parent="1" source="37" target="16">
                    <mxGeometry relative="1" as="geometry">
                        <Array as="points">
                            <mxPoint x="610" y="130"/>
                            <mxPoint x="550" y="130"/>
                        </Array>
                    </mxGeometry>
                </mxCell>
                <mxCell id="41" style="edgeStyle=orthogonalEdgeStyle;rounded=0;html=1;startArrow=none;startFill=0;dashed=1;fillColor=#e1d5e7;strokeColor=#9673a6;" edge="1" parent="1" source="37" target="27">
                    <mxGeometry relative="1" as="geometry">
                        <Array as="points">
                            <mxPoint x="610" y="130"/>
                            <mxPoint x="805" y="130"/>
                        </Array>
                    </mxGeometry>
                </mxCell>
                <mxCell id="37" value="Components definition" style="swimlane;whiteSpace=wrap;html=1;strokeWidth=1;fillColor=#e1d5e7;strokeColor=#9673a6;" vertex="1" parent="1">
                    <mxGeometry x="480" y="-20" width="260" height="120" as="geometry"/>
                </mxCell>
                <mxCell id="33" value="Web server" style="rounded=0;whiteSpace=wrap;html=1;strokeWidth=1;fillColor=#e1d5e7;strokeColor=#9673a6;" vertex="1" parent="37">
                    <mxGeometry x="140" y="52.5" width="100" height="45" as="geometry"/>
                </mxCell>
                <mxCell id="32" value="CDN" style="shape=cylinder3;whiteSpace=wrap;html=1;boundedLbl=1;backgroundOutline=1;size=9;strokeWidth=1;fillColor=#e1d5e7;strokeColor=#9673a6;" vertex="1" parent="37">
                    <mxGeometry x="20" y="40" width="60" height="70" as="geometry"/>
                </mxCell>
                <mxCell id="42" value="Backend" style="swimlane;whiteSpace=wrap;html=1;strokeWidth=1;fillColor=#f8cecc;strokeColor=#b85450;" vertex="1" parent="1">
                    <mxGeometry x="930" y="280" width="240" height="220" as="geometry"/>
                </mxCell>
                <mxCell id="43" value="" style="shape=image;verticalLabelPosition=bottom;labelBackgroundColor=default;verticalAlign=top;aspect=fixed;imageAspect=0;image=data:image/svg+xml,PHN2ZyB4bWxucz0iaHR0cDovL3d3dy53My5vcmcvMjAwMC9zdmciIGZpbGw9Im5vbmUiIHZpZXdCb3g9IjAgMCAyNDAgMjc3IiBoZWlnaHQ9IjI3NyIgd2lkdGg9IjI0MCI+CjxwYXRoIGZpbGw9IiNFQTUxNUEiIGQ9Ik0xMjMuNTY0IDEyMC45NTVWMTU1Ljk5M0w5NS4wMTEzIDE3My4yNDJMNjYuNTM0NSAxNTUuODA0VjEyMC45NTVMOTUuMDExMyAxMDMuNTE4TDEyMy41NjQgMTIwLjk1NVpNNDkuOTAwOSAxMTIuNDc1VjE2NC4yMDdMOTUuMDM3NCAxOTAuMDg1TDE0MC4xOTggMTY0LjIwN1YxMTIuNDc1TDk1LjAzNzQgODYuNjIwOEw0OS45MDA5IDExMi40NzVaIi8+CjxwYXRoIGZpbGw9IiMyOEI3RTAiIGQ9Ik0xNDQuOTYzIDE5MC4wODVMMTczLjQ2NSAyMDcuNTA5VjI0Mi40NjVMMTQ0Ljk2MyAyNTkuODYzTDExNi40MzYgMjQyLjMwNFYyMDcuNTA5TDE0NC45NjMgMTkwLjExMlYxOTAuMDg1Wk05OS44MDIgMTk5LjEyVjI1MC44NTJMMTQ0Ljk2MyAyNzYuNzA2TDE5MC4wOTkgMjUwLjg1MlYxOTkuMTJMMTQ0Ljk2MyAxNzMuMjQyTDk5LjgwMiAxOTkuMTJaIi8+CjxwYXRoIGZpbGw9IiMyNkE1NkYiIGQ9Ik00NS4xNDg1IDE5MC4wODVMNzMuNjYzNCAyMDcuNTA5VjI0Mi40NjVMNDUuMTQ4NSAyNTkuODYzTDE2LjYzMzcgMjQyLjMwNFYyMDcuNTA5TDQ1LjE0ODUgMTkwLjExMlYxOTAuMDg1Wk0wIDE5OS4xMlYyNTAuODUyTDQ1LjE0ODUgMjc2LjcwNkw5MC4yOTcgMjUwLjg1MlYxOTkuMTJMNDUuMTQ4NSAxNzMuMjQyTDAgMTk5LjEyWiIvPgo8cGF0aCBmaWxsPSIjNjY0Mzg5IiBkPSJNMTk0LjgzOSAxMDMuNDY0TDIyMy4zNjYgMTIwLjk1NVYxNTUuOTkzTDE5NC44MzkgMTczLjI0MkwxNjYuMzM3IDE1NS44MDRWMTIwLjk1NUwxOTQuODM5IDEwMy41MThWMTAzLjQ2NFpNMTQ5LjcwMyAxMTIuNDc1VjE2NC4yMDdMMTk0Ljg1MSAxOTAuMDg1TDI0MCAxNjQuMjA3VjExMi40NzVMMTk0Ljg1MSA4Ni42MjA4TDE0OS43MDMgMTEyLjQ3NVoiLz4KPHBhdGggZmlsbD0iI0YxODgzRiIgZD0iTTQ1LjE2MTIgMTYuODQzTDczLjY2MzQgMzQuMzU0OFY2OS4zNzg1TDQ1LjE2MTIgODYuNjIxTDE2LjYzMzcgNjkuMTYzVjM0LjM1NDhMNDUuMTYxMiAxNi44NDNaTTQ1LjE2MDUgMEwwIDI1Ljg1NFY3Ny41ODZMNDUuMTYwNSAxMDMuNDY0TDkwLjI5NyA3Ny41ODZWMjUuODU0TDQ1LjE2MDUgMFoiLz4KPC9zdmc+;" vertex="1" parent="42">
                    <mxGeometry x="180" y="30" width="40" height="46.17" as="geometry"/>
                </mxCell>
            </root>
        </mxGraphModel>
    </diagram>
</mxfile>
